{"title":"(18+)Poison Ivy.The New Seduction.[1997].[Unrated].BRRip.720p.x2","uid":7472756,"size":944377347,"categoryP":"video","categoryS":"hd___movies","magnet":"?xt=urn:btih:2b8eae935e64f74e7aab9437d58797246b31394f&amp;dn=%2818%2B%29Poison+Ivy.The+New+Seduction.%5B1997%5D.%5BUnrated%5D.BRRip.720p.x2&amp;tr=udp%3A%2F%2Ftracker.openbittorrent.com%3A80&amp;tr=udp%3A%2F%2Fopen.demonii.com%3A1337&amp;tr=udp%3A%2F%2Ftracker.coppersurfer.tk%3A6969&amp;tr=udp%3A%2F%2Fexodus.desync.com%3A6969","seeders":10,"leechers":3,"uploader":"TeamExD","files":4,"time":1343201327,"description":" &lt;a href=&quot;http://img210.imageshack.us/img210/5512/exdp.jpg&quot; rel=&quot;nofollow&quot; target=&quot;_NEW&quot;&gt;http://img210.imageshack.us/img210/5512/exdp.jpg&lt;/a&gt; &lt;a href=&quot;\nhttp://img29.imageshack.us/img29/5366/coverapj.jpg&quot; rel=&quot;nofollow&quot; target=&quot;_NEW&quot;&gt;\nhttp://img29.imageshack.us/img29/5366/coverapj.jpg&lt;/a&gt; &lt;a href=&quot;\nhttp://img840.imageshack.us/img840/7983/97400452.png&quot; rel=&quot;nofollow&quot; target=&quot;_NEW&quot;&gt;\nhttp://img840.imageshack.us/img840/7983/97400452.png&lt;/a&gt; &lt;a href=&quot;\nhttp://img441.imageshack.us/img441/7010/21325417.png&quot; rel=&quot;nofollow&quot; target=&quot;_NEW&quot;&gt;\nhttp://img441.imageshack.us/img441/7010/21325417.png&lt;/a&gt; &lt;a href=&quot;\nhttp://img256.imageshack.us/img256/1524/11082106.png&quot; rel=&quot;nofollow&quot; target=&quot;_NEW&quot;&gt;\nhttp://img256.imageshack.us/img256/1524/11082106.png&lt;/a&gt; &lt;a href=&quot;\nhttp://img839.imageshack.us/img839/479/73046777.png&quot; rel=&quot;nofollow&quot; target=&quot;_NEW&quot;&gt;\nhttp://img839.imageshack.us/img839/479/73046777.png&lt;/a&gt; &lt;a href=&quot;\nhttp://img405.imageshack.us/img405/5034/85723023.png&quot; rel=&quot;nofollow&quot; target=&quot;_NEW&quot;&gt;\nhttp://img405.imageshack.us/img405/5034/85723023.png&lt;/a&gt; &lt;a href=&quot;\nhttp://img705.imageshack.us/img705/2217/80745400.png&quot; rel=&quot;nofollow&quot; target=&quot;_NEW&quot;&gt;\nhttp://img705.imageshack.us/img705/2217/80745400.png&lt;/a&gt; &lt;a href=&quot;\nhttp://img198.imageshack.us/img198/2553/15852911.png&quot; rel=&quot;nofollow&quot; target=&quot;_NEW&quot;&gt;\nhttp://img198.imageshack.us/img198/2553/15852911.png&lt;/a&gt; &lt;a href=&quot;\nhttp://img843.imageshack.us/img843/7515/29094577.png&quot; rel=&quot;nofollow&quot; target=&quot;_NEW&quot;&gt;\nhttp://img843.imageshack.us/img843/7515/29094577.png&lt;/a&gt; &lt;a href=&quot;\nhttp://img841.imageshack.us/img841/8130/12591393.png&quot; rel=&quot;nofollow&quot; target=&quot;_NEW&quot;&gt;\nhttp://img841.imageshack.us/img841/8130/12591393.png&lt;/a&gt; &lt;a href=&quot;\nhttp://img256.imageshack.us/img256/6032/95028975.png&quot; rel=&quot;nofollow&quot; target=&quot;_NEW&quot;&gt;\nhttp://img256.imageshack.us/img256/6032/95028975.png&lt;/a&gt;\nFormat                                   : Matroska\nFormat version                           : Version 2\nDuration                                 : 1h 34mn\nOverall bit rate                         : 1 310 Kbps\nFormat                                   : AVC\nFormat/Info                              : Advanced Video Codec\nDuration                                 : 1h 34mn\nBit rate                                 : 867 Kbps\nWidth                                    : 1 280 pixels\nHeight                                   : 680 pixels\nFormat                                   : AC-3\nFormat/Info                              : Audio Coding 3\nMode extension                           : CM (complete main)\nFormat settings, Endianness              : Big\nMuxing mode                              : Header stripping\nCodec ID                                 : A_AC3\nDuration                                 : 1h 34mn\nBit rate mode                            : Constant\nBit rate                                 : 256 Kbps\nChannel(s)                               : 6 channels\nChannel positions                        : Front: L C R, Side: L R, LFE\nSampling rate                            : 48.0 KHz\nStream size                              : 173 MiB (20%)\nTitle                                    : K@rtik\nLanguage                                 : English\nFormat                                   : AC-3\nFormat/Info                              : Audio Coding 3\nCodec ID                                 : A_AC3\nDuration                                 : 1h 34mn\nBit rate mode                            : Constant\nBit rate                                 : 192 Kbps\nChannel(s)                               : 2 channels\nChannel positions                        : Front: L R\nSampling rate                            : 48.0 KHz\nStream size                              : 129 MiB (15%)\nTitle                                    : K@rtik\nLanguage                                 : Hindi","torrent":{"xt":"urn:btih:2b8eae935e64f74e7aab9437d58797246b31394f","amp;dn":"%2818%2B%29Poison+Ivy.The+New+Seduction.%5B1997%5D.%5BUnrated%5D.BRRip.720p.x2","amp;tr":["udp%3A%2F%2Ftracker.openbittorrent.com%3A80","udp%3A%2F%2Fopen.demonii.com%3A1337","udp%3A%2F%2Ftracker.coppersurfer.tk%3A6969","udp%3A%2F%2Fexodus.desync.com%3A6969"],"infoHash":"2b8eae935e64f74e7aab9437d58797246b31394f","infoHashBuffer":{"type":"Buffer","data":[43,142,174,147,94,100,247,78,122,171,148,55,213,135,151,36,107,49,57,79]},"announce":[],"urlList":[]}}